<svg xmlns="http://www.w3.org/2000/svg" width="278.71" height="309.68" viewBox="0 0 278.71 309.68">
  <defs>
    <style>
      .cls-1 {
        fill: none;
        stroke-width: 13px;
      }

      .cls-1, .cls-2, .cls-3 {
        stroke: #e13131;
        stroke-miterlimit: 10;
      }

      .cls-2 {
        fill: #fff;
      }

      .cls-2, .cls-3 {
        stroke-width: 3px;
      }

      .cls-3 {
        fill: #e13131;
      }
    </style>
  </defs>
  <g id="Layer_1" data-name="Layer 1">
    <g>
      <path class="cls-1" d="M92.13,103.74C89,66.58,52.65,66.58,52.65,66.58c-3.1-41.81,44.91-53.52,44.91-53.52C122.71.77,140.9,18.58,140.9,18.58v251.9s-36.58,59.33-79,7c0,0-34.07-14-30.49-48.68,0,.07-34.24-26.68-11.16-58.78"/>
      <path class="cls-1" d="M47.23,103.74s9.29,64.26,61.93,26.32"/>
      <path class="cls-1" d="M56.52,168S76.65,171.17,89,140.59"/>
      <path class="cls-1" d="M47.23,184.13s-57.68-11.1-25.17-63c0,0-13.16-44.13,30.59-54.58"/>
      <path class="cls-1" d="M112.65,183s-41.81-.52-38.2,42.19"/>
      <path class="cls-1" d="M101.29,263.39c-1.29-42.45-37.55-38.84-37.55-38.84"/>
      <path class="cls-1" d="M162.58,90.87s-13.84-2-21.68,10.45"/>
      <path class="cls-1" d="M119.81,69.68s16.06-.39,20.61,15"/>
      <path class="cls-1" d="M172.45,215.52S153.68,217,140.9,247.84"/>
      <path class="cls-1" d="M140.9,18.58S157.35-10.06,205.55,25c0,0-24,3.29-25.94,19"/>
      <path class="cls-1" d="M77.26,21.6s21.45,9.5,24.93,22.34"/>
      <path class="cls-1" d="M205.55,25s29,10.77,22.45,44.71c0,0-40.77-5.42-40.26,39.22"/>
      <path class="cls-1" d="M160,130.32s45.68,41,64.39-25.67"/>
      <path class="cls-1" d="M215.23,168.09s-25.56,3.2-27.49-25.28"/>
      <path class="cls-1" d="M176.77,189.16s38.46,1.94,37.42,42.52"/>
      <path class="cls-1" d="M224.39,231.68s-36.27-5.1-36.65,37"/>
      <path class="cls-1" d="M140.9,270.48s37.68,61.39,77.94,5.91c0,0,37.68-12.65,31.48-47.74,0,0,36.13-20.13,12.83-59.65"/>
      <path class="cls-1" d="M235.35,184.13s60.13-12.26,22.71-64.52c0,0,12.65-44.39-30.06-49.93"/>
    </g>
  </g>
  <g id="Layer_2" data-name="Layer 2">
    <circle class="cls-2" cx="140.9" cy="155.5" r="24.34"/>
    <circle class="cls-3" cx="140.9" cy="155.5" r="3.74"/>
  </g>
</svg>
