<svg xmlns="http://www.w3.org/2000/svg" width="271.85" height="305.05" viewBox="0 0 271.85 305.05">
  <defs>
    <style>
      .cls-1, .cls-3 {
        fill: none;
        stroke: #e13131;
        stroke-miterlimit: 10;
      }

      .cls-1 {
        stroke-width: 13px;
      }

      .cls-2 {
        fill: #e13131;
      }

      .cls-3 {
        stroke-width: 3px;
      }
    </style>
  </defs>
  <g id="Layer_2" data-name="Layer 2">
    <g>
      <path class="cls-1" d="M20.29,170h0c-23.07,32.1,11.13,58.84,11.16,58.77-3.58,34.65,30.49,48.68,30.49,48.68,42.38,52.35,79-7,79-7V179.84" transform="translate(-5.63 -1.05)"/>
      <path class="cls-1" d="M140.9,131.16V18.58S122.71.77,97.56,13.06a78.26,78.26,0,0,0-20,8.69C64.82,29.57,50.94,43.48,52.65,66.58c0,0,36.38,0,39.48,37.16" transform="translate(-5.63 -1.05)"/>
      <path class="cls-1" d="M47.23,103.74s9.29,64.26,61.93,26.32" transform="translate(-5.63 -1.05)"/>
      <path class="cls-1" d="M56.52,168S76.65,171.17,89,140.59" transform="translate(-5.63 -1.05)"/>
      <path class="cls-1" d="M47.23,184.13s-57.68-11.1-25.17-63c0,0-13.16-44.13,30.59-54.58" transform="translate(-5.63 -1.05)"/>
      <path class="cls-1" d="M112.65,183s-41.81-.52-38.2,42.19" transform="translate(-5.63 -1.05)"/>
      <path class="cls-1" d="M101.29,263.39c-1.29-42.45-37.55-38.84-37.55-38.84" transform="translate(-5.63 -1.05)"/>
      <path class="cls-1" d="M162.58,90.87s-13.84-2-21.68,10.45" transform="translate(-5.63 -1.05)"/>
      <path class="cls-1" d="M119.81,69.68s16.06-.39,20.61,15" transform="translate(-5.63 -1.05)"/>
      <path class="cls-1" d="M172.45,215.52S153.68,217,140.9,247.84" transform="translate(-5.63 -1.05)"/>
      <path class="cls-1" d="M140.9,18.58S157.35-10.06,205.55,25c0,0-24,3.29-25.94,19" transform="translate(-5.63 -1.05)"/>
      <path class="cls-1" d="M77.26,21.6s21.45,9.5,24.93,22.34" transform="translate(-5.63 -1.05)"/>
      <path class="cls-1" d="M205.55,25s29,10.77,22.45,44.71c0,0-40.77-5.42-40.26,39.22" transform="translate(-5.63 -1.05)"/>
      <path class="cls-1" d="M160,130.32s45.68,41,64.39-25.67" transform="translate(-5.63 -1.05)"/>
      <path class="cls-1" d="M215.23,168.09s-25.56,3.2-27.49-25.28" transform="translate(-5.63 -1.05)"/>
      <path class="cls-1" d="M176.77,189.16s38.46,1.94,37.42,42.52" transform="translate(-5.63 -1.05)"/>
      <path class="cls-1" d="M224.39,231.68s-36.27-5.1-36.65,37" transform="translate(-5.63 -1.05)"/>
      <path class="cls-1" d="M263.15,169c23.3,39.52-12.83,59.65-12.83,59.65,6.2,35.1-31.48,47.74-31.48,47.74-40.26,55.49-77.94-5.9-77.94-5.9" transform="translate(-5.63 -1.05)"/>
      <path class="cls-1" d="M235.35,184.13s60.13-12.26,22.71-64.52c0,0,12.65-44.39-30.06-49.93" transform="translate(-5.63 -1.05)"/>
    </g>
    <circle class="cls-2" cx="135.27" cy="154.45" r="6.18"/>
  </g>
  <g id="Layer_3" data-name="Layer 3">
    <circle class="cls-3" cx="140.9" cy="155.5" r="24.34" transform="translate(-74.31 144.13) rotate(-45)"/>
  </g>
</svg>
