<svg id="Layer_2" data-name="Layer 2" xmlns="http://www.w3.org/2000/svg" width="497.4" height="253.25" viewBox="0 0 497.4 253.25">
  <defs>
    <style>
      .cls-1 {
        fill: #fff;
      }

      .cls-2 {
        fill: #e13131;
      }
    </style>
  </defs>
  <g>
    <g>
      <path class="cls-1" d="M70.08,84.94H64.25V34.54H74.48L85.85,79.61V34.54h5.83v50.4H81.39L70.08,39.87Z"/>
      <path class="cls-1" d="M128.91,34.54V39.8H111.12V56.28h16v5.26h-16V79.68h17.79v5.26h-24V34.54Z"/>
      <path class="cls-1" d="M155.62,64.49l-4.54,20.45h-8.64L140,34.54h5.33l2.16,45,6-23.76h4.46L164,79.54l2.23-45h5l-2.45,50.4h-9.07Z"/>
    </g>
    <g>
      <path class="cls-2" d="M187.9,138.43l-2.8,12.74h-6.41l12.17-50.4h8.28l12,50.4h-6.41l-2.74-12.74Zm12.89-5.4-5.9-27.5L189.06,133Z"/>
      <path class="cls-2" d="M224.44,148.11q-3.34-3.06-3.35-9.18V113q0-6.12,3.35-9.18t9.61-3.06h10.16v5.48H233.33a6,6,0,0,0-4.32,1.58,5.11,5.11,0,0,0-1.65,3.82V140.3a5.11,5.11,0,0,0,1.65,3.82,6,6,0,0,0,4.32,1.58h7.06V130.08h-6.26v-5.4h12.24v26.49H234.05Q227.8,151.17,224.44,148.11Z"/>
      <path class="cls-2" d="M284.67,100.77V106H266.89v16.49h16v5.25h-16v18.15h17.78v5.25H260.62v-50.4Z"/>
    </g>
    <g>
      <path class="cls-1" d="M299.59,218.71V173.78H288.15v-5.47H317.3v5.47H305.86v44.93Z"/>
      <path class="cls-1" d="M353.66,168.31v5.25H335.88v16.49h16v5.26h-16v18.14h17.78v5.26h-24v-50.4Z"/>
      <path class="cls-1" d="M372.27,215.65q-3.34-3.06-3.34-9.18V180.55q0-6.12,3.34-9.18t9.62-3.06h10.22v5.47H381.17a6,6,0,0,0-4.32,1.58,5.08,5.08,0,0,0-1.66,3.82v28.65a5.07,5.07,0,0,0,1.66,3.82,6,6,0,0,0,4.32,1.58h10.94v5.48H381.89Q375.62,218.71,372.27,215.65Z"/>
      <path class="cls-1" d="M412,195.52v23.19h-6.26v-50.4H412v21.88h14.83V168.31h6.27v50.4h-6.27V195.52Z"/>
      <path class="cls-2" d="M461.88,211.51v7.2h-7.2v-7.2Z"/>
    </g>
  </g>
</svg>
